<?xml version="1.0" encoding="utf-8"?>
<!-- Generator: Adobe Illustrator 16.0.0, SVG Export Plug-In . SVG Version: 6.00 Build 0)  -->
<!DOCTYPE svg PUBLIC "-//W3C//DTD SVG 1.1//EN" "http://www.w3.org/Graphics/SVG/1.1/DTD/svg11.dtd">
<svg version="1.1" id="Model" xmlns="http://www.w3.org/2000/svg" xmlns:xlink="http://www.w3.org/1999/xlink" x="0px" y="0px"
	 width="595.28px" height="595.28px" viewBox="0 0 595.28 595.28" enable-background="new 0 0 595.28 595.28" xml:space="preserve">
<g>
	<path fill="#ECEFF1" d="M291.867,527.9c-0.522-0.762-1.047-1.521-1.576-2.277c-1.719-2.462-3.516-4.962-5.341-7.432
		c-1.241-1.678-2.499-3.35-3.77-5.008c-1.29-1.683-2.595-3.354-3.914-5.014c-2.637-3.321-5.412-6.699-8.247-10.042
		c-0.459-0.541-0.919-1.078-1.38-1.616c-0.524-0.61-1.052-1.221-1.581-1.826c-0.491-0.563-0.981-1.118-1.473-1.673
		c-0.499-0.56-1.007-1.129-1.519-1.693c-0.533-0.59-1.063-1.172-1.596-1.751c-0.55-0.598-1.102-1.192-1.656-1.783
		c-1.183-1.265-2.366-2.506-3.558-3.738c-0.633-0.655-1.262-1.303-1.893-1.946c-0.654-0.667-1.31-1.332-1.969-1.995
		c-0.681-0.687-1.361-1.367-2.043-2.047c-0.701-0.696-1.406-1.394-2.113-2.091c-1.463-1.44-2.936-2.876-4.414-4.305
		c-0.747-0.724-1.493-1.44-2.238-2.155l-1.498-1.435c-1.001-0.957-7.163-6.813-7.163-6.813l-3.028-2.882
		c-1.019-0.973-2.034-1.944-3.046-2.917c-1.025-0.985-2.044-1.971-3.061-2.957c-1.03-1.001-2.053-2.002-3.074-3.006l-2.949-2.919
		l-1.226-1.19l-0.621-0.592l-1.324-1.24l-1.716-1.579c0,0-6.429-5.844-7.286-6.625c-0.946-0.862-1.895-1.731-2.842-2.602
		c-1.028-0.943-2.059-1.897-3.089-2.853c-1.119-1.041-2.225-2.075-3.325-3.113c-2.558-2.414-4.893-4.658-7.137-6.861
		c-1.083-1.063-2.159-2.13-3.229-3.203c-1.263-1.266-2.517-2.543-3.762-3.826c-0.655-0.676-1.305-1.353-1.953-2.031
		c-1.021-1.071-2.035-2.146-3.042-3.228c-0.603-0.646-1.205-1.298-1.806-1.95c-0.533-0.579-1.062-1.158-1.589-1.737
		c-0.549-0.604-1.091-1.203-1.63-1.804c-0.555-0.618-1.11-1.24-1.664-1.863c-0.572-0.645-1.141-1.29-1.708-1.938
		c-0.588-0.671-1.17-1.342-1.75-2.012c-0.608-0.705-1.204-1.4-1.797-2.098c-0.619-0.729-1.229-1.452-1.837-2.18
		c-0.63-0.754-1.254-1.508-1.875-2.265c-1.297-1.58-2.579-3.175-3.844-4.783c-0.662-0.845-1.315-1.684-1.962-2.527
		c-0.662-0.864-1.317-1.73-1.967-2.602c-0.666-0.892-1.322-1.785-1.973-2.684c-0.667-0.921-1.323-1.842-1.971-2.766
		c-0.848-1.212-1.68-2.431-2.5-3.655c-1.325-1.984-2.611-3.995-3.826-5.98c-1.021-1.669-2.01-3.353-2.937-5.003
		c-0.599-1.066-1.182-2.137-1.754-3.216c-0.578-1.093-1.141-2.19-1.686-3.297c-0.547-1.104-1.082-2.228-1.6-3.359
		c-0.519-1.131-1.022-2.275-1.508-3.431c-0.487-1.157-0.958-2.327-1.407-3.504c-0.513-1.344-1.001-2.7-1.45-4.032
		c-0.41-1.216-0.802-2.452-1.165-3.677c-0.314-1.065-0.612-2.129-0.891-3.196c-0.282-1.078-0.546-2.158-0.794-3.243
		c-0.251-1.098-0.484-2.195-0.701-3.298c-0.218-1.11-0.419-2.225-0.605-3.342c-0.188-1.135-0.357-2.264-0.512-3.396
		c-0.156-1.146-0.295-2.295-0.419-3.445c-0.125-1.168-0.234-2.332-0.327-3.498c-0.094-1.177-0.173-2.358-0.236-3.542
		c-0.063-1.199-0.112-2.397-0.146-3.596c-0.034-1.213-0.052-2.426-0.057-3.64c-0.003-1.238,0.007-2.469,0.033-3.699
		c0.042-2.093,0.128-4.242,0.255-6.386c0.148-2.521,0.356-5.111,0.618-7.695c0.259-2.563,0.58-5.216,0.954-7.881
		c0.37-2.631,0.801-5.345,1.283-8.066c0.474-2.681,1.014-5.464,1.605-8.27c0.59-2.788,1.235-5.628,1.92-8.447
		c0.678-2.793,1.421-5.68,2.21-8.58c0.777-2.859,1.618-5.801,2.499-8.741c0.868-2.902,1.802-5.894,2.775-8.893
		c0.945-2.914,1.968-5.956,3.04-9.041c1.06-3.046,2.169-6.136,3.297-9.188c1.12-3.034,2.311-6.171,3.538-9.323
		c1.196-3.074,2.465-6.256,3.77-9.457c1.257-3.085,2.599-6.311,3.988-9.585c1.329-3.131,2.741-6.398,4.196-9.709
		c1.444-3.285,2.908-6.56,4.39-9.828c1.507-3.322,3.033-6.636,4.575-9.942c1.196-2.564,2.4-5.124,3.615-7.678
		c1.607-3.384,3.23-6.761,4.867-10.132c1.66-3.42,3.333-6.832,5.018-10.237c1.706-3.45,3.425-6.894,5.154-10.333
		c2.815-5.601,5.741-11.354,8.944-17.588c2.983-5.805,5.986-11.597,9.004-17.382l1.577-3.023l3.353-0.622
		c2.359-0.438,4.724-0.853,7.09-1.247c2.396-0.4,4.796-0.778,7.199-1.135c1.912-0.285,3.829-0.557,5.747-0.815
		c1.93-0.261,3.863-0.509,5.8-0.745c3.851-0.469,7.805-0.898,11.752-1.277c3.927-0.376,7.936-0.711,11.919-0.995
		c4-0.284,8.052-0.523,12.042-0.711c4.02-0.189,8.099-0.333,12.124-0.426c4.021-0.094,8.114-0.142,12.166-0.142
		c4.051,0,8.145,0.048,12.166,0.142c4.023,0.094,8.103,0.237,12.124,0.426c3.995,0.188,8.046,0.427,12.04,0.711
		c3.986,0.284,7.996,0.619,11.919,0.995c3.943,0.379,7.897,0.809,11.754,1.278c1.937,0.236,3.871,0.484,5.802,0.745
		c1.917,0.258,3.833,0.53,5.747,0.815c2.4,0.357,4.802,0.736,7.198,1.136c2.365,0.394,4.729,0.809,7.089,1.247l3.354,0.622
		l1.577,3.024c3.148,6.038,6.284,12.084,9.395,18.142c1.534,2.989,3.063,5.981,4.584,8.977c1.637,3.223,3.267,6.449,4.887,9.679
		c1.798,3.586,3.583,7.175,5.354,10.772c1.748,3.547,3.483,7.1,5.202,10.661c1.694,3.509,3.374,7.026,5.035,10.55
		c0.994,2.105,1.981,4.216,2.963,6.33c1.6,3.445,3.181,6.898,4.74,10.359c1.616,3.586,3.1,6.933,4.537,10.232
		c1.464,3.359,2.917,6.757,4.319,10.098c1.468,3.505,2.805,6.764,4.09,9.967c1.317,3.28,2.612,6.586,3.847,9.822
		c1.222,3.199,2.429,6.454,3.59,9.671c1.16,3.228,2.277,6.43,3.319,9.523c1.058,3.142,2.078,6.292,3.036,9.366
		c0.968,3.112,1.89,6.206,2.739,9.197c0.863,3.042,1.681,6.079,2.431,9.027c0.757,2.977,1.466,5.953,2.109,8.847
		c0.655,2.953,1.255,5.878,1.782,8.696c0.539,2.875,1.022,5.735,1.437,8.503c0.207,1.385,0.401,2.771,0.582,4.157
		c0.179,1.375,0.343,2.744,0.493,4.115c0.297,2.71,0.536,5.427,0.71,8.075c0.159,2.406,0.269,4.822,0.323,7.178
		c0.029,1.289,0.044,2.576,0.042,3.863c-0.001,1.269-0.019,2.542-0.055,3.815c-0.032,1.238-0.084,2.492-0.15,3.743
		c-0.066,1.233-0.149,2.467-0.249,3.699c-0.1,1.22-0.217,2.436-0.352,3.649c-0.132,1.2-0.28,2.399-0.45,3.595
		c-0.163,1.172-0.348,2.353-0.549,3.528c-0.2,1.165-0.417,2.325-0.653,3.483c-0.233,1.146-0.485,2.291-0.758,3.431
		c-0.266,1.124-0.554,2.253-0.861,3.375c-0.146,0.538-0.302,1.094-0.462,1.647c-0.119,0.407-0.233,0.791-0.35,1.174
		c-0.197,0.646-0.396,1.279-0.601,1.91c-0.419,1.286-0.858,2.556-1.312,3.787c-0.395,1.078-0.812,2.158-1.244,3.233
		c-0.493,1.22-1.002,2.425-1.533,3.622c-0.521,1.18-1.067,2.36-1.631,3.533c-0.559,1.16-1.134,2.312-1.726,3.456
		c-0.593,1.143-1.194,2.267-1.811,3.384c-0.801,1.448-1.655,2.935-2.543,4.424c-0.643,1.077-1.295,2.142-1.96,3.2
		c-0.654,1.042-1.32,2.079-1.998,3.109c-0.942,1.435-1.94,2.908-2.966,4.383c-1.3,1.865-2.685,3.787-4.119,5.714
		c-1.315,1.765-2.693,3.563-4.098,5.35c-0.665,0.847-1.34,1.695-2.02,2.538c-0.654,0.814-1.32,1.632-1.989,2.446
		c-0.651,0.791-1.302,1.574-1.956,2.355c-0.64,0.763-1.275,1.516-1.915,2.265c-0.614,0.721-1.237,1.444-1.861,2.165
		c-0.604,0.697-1.211,1.393-1.82,2.085c-0.585,0.666-1.176,1.334-1.77,2c-0.573,0.644-1.146,1.281-1.721,1.919
		c-1.071,1.186-2.144,2.36-3.222,3.529c-1.064,1.151-2.13,2.292-3.203,3.426c-0.526,0.555-1.729,1.815-1.729,1.815l-0.646,0.671
		c-1.198,1.244-2.426,2.497-3.659,3.743c-1.837,1.85-3.72,3.711-5.602,5.537c-1.235,1.2-2.48,2.397-3.731,3.588
		c-1.186,1.127-2.372,2.247-3.564,3.361c-1.106,1.035-2.222,2.07-3.339,3.101c-1.017,0.939-2.043,1.881-3.068,2.819l-8.001,7.275
		c-0.578,0.53-1.164,1.066-1.748,1.608c-0.496,0.459-0.99,0.919-1.479,1.383c-0.463,0.438-0.92,0.873-1.375,1.314l-1.381,1.358
		c0,0-1.844,1.827-2.383,2.355c-1.054,1.039-2.126,2.085-3.198,3.127c-1.067,1.034-2.133,2.061-3.199,3.085
		c-1.057,1.015-2.117,2.029-3.18,3.043l-7.455,7.087c-1.047,0.996-2.093,1.994-3.138,2.993c-0.687,0.658-1.381,1.325-2.072,1.993
		c-0.789,0.762-1.57,1.517-2.35,2.275c-1.51,1.471-3.013,2.946-4.508,4.43c-0.707,0.704-1.424,1.419-2.135,2.135
		c-0.695,0.699-1.385,1.396-2.071,2.097c-0.661,0.675-1.325,1.355-1.985,2.039c-0.633,0.655-1.268,1.315-1.898,1.979
		c-0.604,0.635-1.208,1.277-1.811,1.92c-0.574,0.615-1.15,1.236-1.725,1.861c-0.555,0.604-1.106,1.21-1.655,1.818
		c-0.526,0.586-1.055,1.176-1.58,1.771c-0.505,0.57-1.007,1.143-1.505,1.716l-0.747,0.86c-0.482,0.561-1.809,2.115-1.809,2.115
		l-1.059,1.252c-0.52,0.618-1.041,1.239-1.559,1.861c-2.067,2.484-4.096,4.982-6.024,7.42c-1.947,2.457-3.87,4.95-5.72,7.413
		c-1.831,2.437-3.651,4.927-5.413,7.406c-1.06,1.49-2.104,2.987-3.137,4.493l-5.772,8.417L291.867,527.9z"/>
	<path fill="#111111" d="M297.64,70.856c4.001,0,8.002,0.046,12.002,0.14c3.987,0.093,7.974,0.233,11.959,0.42
		c3.96,0.187,7.919,0.42,11.873,0.701c3.92,0.279,7.836,0.605,11.747,0.98c3.864,0.371,7.723,0.79,11.576,1.258
		c1.905,0.232,3.81,0.476,5.71,0.733c1.887,0.254,3.771,0.521,5.653,0.802c2.361,0.351,4.722,0.723,7.077,1.116
		c2.325,0.387,4.647,0.795,6.965,1.225c3.142,6.025,6.271,12.058,9.374,18.103c1.53,2.98,3.054,5.964,4.571,8.951
		c1.631,3.211,3.255,6.427,4.87,9.647c1.789,3.569,3.567,7.145,5.332,10.727c1.74,3.531,3.467,7.067,5.178,10.611
		c1.686,3.49,3.355,6.987,5.008,10.492c0.988,2.094,1.97,4.192,2.945,6.293c1.588,3.42,3.158,6.849,4.707,10.287
		c1.521,3.375,3.022,6.758,4.501,10.152c1.45,3.327,2.878,6.664,4.282,10.011c1.373,3.279,2.725,6.566,4.048,9.865
		c1.296,3.226,2.564,6.463,3.804,9.711c1.211,3.173,2.393,6.356,3.545,9.551c1.121,3.117,2.213,6.244,3.271,9.384
		c1.029,3.059,2.025,6.129,2.985,9.211c0.933,2.998,1.831,6.008,2.689,9.029c0.833,2.936,1.628,5.882,2.38,8.839
		c0.729,2.87,1.418,5.75,2.061,8.641c0.624,2.813,1.205,5.634,1.735,8.465c0.514,2.742,0.98,5.492,1.394,8.251
		c0.2,1.34,0.389,2.684,0.564,4.028c0.172,1.323,0.33,2.646,0.476,3.972c0.283,2.584,0.513,5.175,0.684,7.771
		c0.151,2.291,0.256,4.585,0.31,6.881c0.028,1.229,0.042,2.459,0.04,3.688c-0.001,1.21-0.018,2.419-0.052,3.629
		c-0.031,1.188-0.08,2.379-0.144,3.566c-0.063,1.17-0.142,2.339-0.236,3.507c-0.094,1.15-0.204,2.299-0.331,3.445
		c-0.125,1.131-0.265,2.26-0.424,3.386c-0.155,1.11-0.328,2.22-0.518,3.324c-0.188,1.093-0.391,2.181-0.612,3.267
		c-0.219,1.073-0.454,2.143-0.708,3.207c-0.25,1.055-0.518,2.105-0.804,3.15c-0.141,0.519-0.287,1.037-0.437,1.555
		c-0.105,0.36-0.213,0.722-0.322,1.082c-0.183,0.598-0.37,1.194-0.563,1.789c-0.385,1.182-0.792,2.358-1.221,3.523
		c-0.373,1.019-0.763,2.029-1.168,3.035c-0.461,1.141-0.939,2.274-1.438,3.399c-0.495,1.121-1.01,2.233-1.541,3.338
		c-0.529,1.101-1.075,2.192-1.636,3.277c-0.56,1.078-1.133,2.149-1.721,3.215c-0.785,1.42-1.596,2.827-2.427,4.222
		c-0.613,1.027-1.238,2.047-1.875,3.061c-0.63,1.004-1.271,2-1.921,2.99c-0.935,1.422-1.89,2.831-2.861,4.228
		c-1.3,1.866-2.631,3.709-3.988,5.532c-1.305,1.751-2.634,3.484-3.984,5.201c-0.65,0.828-1.307,1.653-1.968,2.474
		c-0.645,0.802-1.294,1.6-1.947,2.395c-0.636,0.772-1.274,1.541-1.916,2.308c-0.621,0.74-1.244,1.478-1.871,2.212
		c-0.606,0.712-1.217,1.421-1.829,2.128c-0.592,0.684-1.188,1.365-1.785,2.045c-0.577,0.657-1.157,1.313-1.739,1.966
		c-0.563,0.632-1.129,1.262-1.695,1.891c-1.048,1.16-2.104,2.316-3.165,3.467c-1.041,1.126-2.088,2.247-3.143,3.361
		c-0.514,0.542-1.027,1.083-1.544,1.622c-0.257,0.268-0.513,0.535-0.771,0.801c-1.194,1.24-2.398,2.47-3.609,3.692
		c-1.817,1.83-3.652,3.644-5.503,5.439c-1.222,1.188-2.449,2.367-3.683,3.541c-1.168,1.11-2.34,2.217-3.518,3.317
		c-1.098,1.027-2.2,2.051-3.305,3.069c-1.014,0.937-2.032,1.87-3.05,2.802c-0.922,0.842-1.845,1.682-2.768,2.521
		c-0.424,0.385-0.848,0.77-1.271,1.154c-0.624,0.567-1.248,1.134-1.873,1.7c-0.692,0.629-1.385,1.259-2.077,1.89
		c-0.598,0.548-1.194,1.095-1.79,1.646c-0.514,0.476-1.026,0.953-1.534,1.434c-0.481,0.455-0.959,0.911-1.436,1.373
		c-0.191,0.186-0.381,0.372-0.571,0.559c-0.134,0.131-0.267,0.263-0.4,0.394c-0.161,0.159-0.321,0.32-0.482,0.479
		c-0.069,0.07-0.139,0.14-0.208,0.209c-0.182,0.179-0.363,0.359-0.544,0.538c-0.528,0.523-1.058,1.046-1.589,1.567
		c-1.053,1.038-2.112,2.071-3.173,3.102c-1.054,1.021-2.111,2.04-3.17,3.057c-1.051,1.01-2.104,2.018-3.16,3.023
		c-1.05,1-2.101,1.999-3.152,2.998c-1.433,1.361-2.867,2.723-4.3,4.086c-1.051,1-2.101,2.002-3.149,3.005
		c-0.701,0.673-1.401,1.346-2.099,2.02c-0.792,0.764-1.582,1.527-2.369,2.294c-1.525,1.485-3.044,2.977-4.555,4.476
		c-0.725,0.722-1.45,1.445-2.171,2.171c-0.703,0.707-1.404,1.416-2.103,2.128c-0.676,0.69-1.351,1.382-2.021,2.076
		c-0.646,0.67-1.292,1.342-1.934,2.016c-0.62,0.652-1.237,1.308-1.852,1.964c-0.594,0.636-1.184,1.271-1.771,1.912
		c-0.568,0.619-1.135,1.24-1.697,1.864c-0.544,0.604-1.085,1.21-1.624,1.819c-0.519,0.586-1.036,1.175-1.549,1.766
		c-0.255,0.291-0.508,0.583-0.76,0.875c-0.495,0.575-0.988,1.151-1.48,1.729c-0.121,0.143-0.242,0.285-0.363,0.428
		c-0.36,0.424-0.721,0.851-1.079,1.276c-0.528,0.628-1.057,1.258-1.582,1.889c-2.075,2.494-4.121,5.012-6.135,7.557
		c-1.975,2.492-3.918,5.01-5.828,7.554c-1.874,2.493-3.715,5.012-5.521,7.555c-1.081,1.521-2.149,3.051-3.204,4.589
		c-0.533-0.777-1.069-1.552-1.609-2.325c-1.782-2.552-3.601-5.08-5.451-7.584c-1.267-1.713-2.548-3.417-3.845-5.107
		c-1.314-1.714-2.644-3.416-3.987-5.107c-2.74-3.451-5.54-6.856-8.391-10.217c-0.467-0.551-0.936-1.099-1.406-1.646
		c-0.537-0.626-1.079-1.251-1.621-1.872c-0.5-0.573-1.003-1.144-1.507-1.712c-0.521-0.585-1.042-1.169-1.568-1.749
		c-0.542-0.6-1.086-1.197-1.634-1.792c-0.565-0.614-1.133-1.227-1.705-1.835c-1.199-1.282-2.41-2.553-3.629-3.813
		c-0.64-0.663-1.282-1.323-1.926-1.98c-0.665-0.678-1.331-1.354-2-2.027c-0.688-0.693-1.378-1.384-2.07-2.073
		c-0.711-0.707-1.424-1.412-2.138-2.116c-1.48-1.458-2.969-2.908-4.463-4.353c-0.751-0.728-1.504-1.451-2.258-2.174
		c-0.503-0.483-1.007-0.966-1.51-1.446c-1.003-0.959-2.009-1.917-3.015-2.873c-0.521-0.495-1.041-0.989-1.562-1.484
		c-0.865-0.821-1.729-1.642-2.594-2.464c-1.008-0.958-2.015-1.916-3.021-2.876c-1.01-0.965-2.021-1.932-3.028-2.899
		c-1.014-0.976-2.026-1.953-3.036-2.933c-1.017-0.988-2.03-1.979-3.042-2.974c-0.507-0.501-1.014-1.001-1.521-1.504
		c-0.137-0.136-0.274-0.271-0.413-0.409c-0.068-0.067-0.136-0.136-0.204-0.203c-0.154-0.153-0.309-0.306-0.463-0.459
		c-0.122-0.121-0.244-0.241-0.367-0.361c-0.18-0.178-0.362-0.355-0.543-0.531c-0.239-0.232-0.48-0.465-0.721-0.696
		c-0.215-0.205-0.431-0.41-0.646-0.615c-0.208-0.196-0.417-0.393-0.627-0.589c-0.248-0.231-0.495-0.463-0.742-0.694
		c-0.266-0.246-0.533-0.492-0.8-0.738c-0.286-0.264-0.572-0.526-0.859-0.79c-0.307-0.28-0.615-0.563-0.923-0.843
		c-0.33-0.301-0.66-0.602-0.99-0.902c-0.353-0.32-0.706-0.641-1.059-0.962c-0.625-0.565-1.25-1.133-1.875-1.701
		c-0.854-0.774-1.708-1.55-2.56-2.327c-0.942-0.858-1.883-1.72-2.822-2.583c-1.025-0.94-2.047-1.887-3.068-2.833
		c-1.096-1.021-2.19-2.044-3.279-3.071c-2.367-2.233-4.715-4.486-7.038-6.766c-1.065-1.045-2.124-2.095-3.176-3.15
		c-1.24-1.243-2.472-2.496-3.693-3.756c-0.641-0.661-1.279-1.325-1.915-1.991c-1-1.049-1.995-2.104-2.982-3.165
		c-0.596-0.639-1.188-1.28-1.779-1.922c-0.522-0.567-1.042-1.137-1.562-1.707c-0.534-0.588-1.067-1.177-1.597-1.768
		c-0.548-0.61-1.094-1.222-1.638-1.835c-0.562-0.633-1.121-1.268-1.679-1.904c-0.575-0.657-1.149-1.317-1.72-1.978
		c-0.589-0.684-1.176-1.368-1.761-2.055c-0.602-0.709-1.201-1.42-1.798-2.134c-0.614-0.734-1.225-1.472-1.832-2.212
		c-1.268-1.545-2.52-3.102-3.755-4.672c-0.641-0.817-1.278-1.637-1.91-2.46c-0.643-0.839-1.28-1.682-1.912-2.528
		c-0.645-0.864-1.282-1.731-1.914-2.604c-0.643-0.889-1.279-1.781-1.907-2.678c-0.818-1.168-1.622-2.346-2.414-3.529
		c-1.261-1.889-2.487-3.803-3.672-5.74c-0.964-1.576-1.901-3.169-2.807-4.78c-0.569-1.014-1.125-2.033-1.669-3.062
		c-0.545-1.031-1.078-2.07-1.594-3.117c-0.521-1.051-1.024-2.109-1.512-3.176c-0.491-1.069-0.964-2.146-1.42-3.23
		c-0.458-1.089-0.899-2.186-1.321-3.289c-0.477-1.248-0.93-2.506-1.357-3.772c-0.383-1.137-0.746-2.28-1.086-3.43
		c-0.292-0.989-0.57-1.982-0.831-2.979c-0.264-1.008-0.511-2.019-0.743-3.033c-0.234-1.024-0.452-2.053-0.655-3.086
		c-0.205-1.043-0.394-2.09-0.568-3.139c-0.175-1.063-0.335-2.127-0.481-3.194c-0.147-1.081-0.278-2.164-0.395-3.249
		c-0.118-1.101-0.221-2.201-0.309-3.305c-0.09-1.119-0.164-2.239-0.224-3.36c-0.061-1.138-0.107-2.277-0.139-3.416
		c-0.032-1.157-0.049-2.314-0.054-3.472c-0.003-1.177,0.007-2.353,0.031-3.527c0.042-2.041,0.124-4.08,0.245-6.118
		c0.146-2.471,0.345-4.939,0.595-7.403c0.257-2.543,0.566-5.082,0.922-7.613c0.367-2.614,0.784-5.221,1.244-7.819
		c0.476-2.691,0.999-5.373,1.562-8.047c0.583-2.756,1.208-5.502,1.873-8.239c0.682-2.809,1.404-5.606,2.163-8.394
		c0.779-2.868,1.597-5.724,2.45-8.57c0.875-2.924,1.786-5.837,2.728-8.741c0.965-2.978,1.965-5.945,2.994-8.903
		c1.055-3.03,2.139-6.05,3.251-9.06c1.137-3.08,2.303-6.149,3.495-9.21c1.217-3.128,2.461-6.246,3.729-9.354
		c1.293-3.174,2.611-6.337,3.95-9.492c1.365-3.218,2.753-6.427,4.16-9.626c1.434-3.261,2.886-6.511,4.357-9.754
		c1.497-3.3,3.013-6.592,4.544-9.876c1.188-2.547,2.386-5.091,3.593-7.631c1.6-3.367,3.214-6.727,4.842-10.08
		c1.652-3.403,3.317-6.799,4.995-10.189c1.7-3.437,3.413-6.868,5.135-10.294c2.945-5.858,5.92-11.701,8.916-17.533
		c2.976-5.791,5.973-11.571,8.984-17.344c2.317-0.43,4.639-0.838,6.964-1.225c2.356-0.393,4.716-0.765,7.078-1.116
		c1.882-0.28,3.767-0.547,5.653-0.802c1.901-0.257,3.804-0.501,5.71-0.733c3.853-0.469,7.712-0.887,11.576-1.258
		c3.912-0.375,7.827-0.701,11.747-0.98c3.955-0.281,7.913-0.515,11.874-0.701c3.985-0.188,7.972-0.328,11.958-0.42
		C289.638,70.903,293.639,70.856,297.64,70.856 M297.64,56.856c-4.104,0-8.252,0.048-12.33,0.144
		c-4.078,0.095-8.213,0.24-12.289,0.432c-4.043,0.19-8.15,0.433-12.207,0.721c-4.043,0.288-8.11,0.627-12.092,1.009
		c-4.008,0.385-8.021,0.821-11.931,1.297c-1.97,0.24-3.953,0.494-5.894,0.756c-1.954,0.264-3.92,0.542-5.841,0.829
		c-2.433,0.362-4.897,0.75-7.319,1.154c-2.408,0.401-4.836,0.828-7.213,1.269l-6.706,1.243l-3.154,6.047
		c-3.237,6.206-6.188,11.904-9.023,17.419c-3.21,6.25-6.145,12.02-8.972,17.644c-1.854,3.688-3.546,7.082-5.176,10.376
		c-1.69,3.416-3.386,6.875-5.039,10.28c-1.683,3.467-3.329,6.894-4.894,10.188c-1.221,2.568-2.432,5.143-3.634,7.72
		c-1.583,3.396-3.132,6.763-4.606,10.012c-1.511,3.331-3,6.663-4.424,9.904c-1.467,3.335-2.891,6.63-4.232,9.793
		c-1.403,3.306-2.758,6.563-4.027,9.678c-1.317,3.231-2.599,6.448-3.81,9.559c-1.241,3.189-2.446,6.365-3.581,9.438
		c-1.142,3.09-2.266,6.223-3.34,9.307c-1.09,3.136-2.129,6.226-3.089,9.187c-0.989,3.046-1.938,6.09-2.823,9.045
		c-0.896,2.993-1.754,5.993-2.547,8.913c-0.806,2.961-1.565,5.91-2.258,8.763c-0.701,2.886-1.362,5.794-1.964,8.644
		c-0.609,2.889-1.164,5.748-1.652,8.507c-0.495,2.799-0.94,5.596-1.321,8.309c-0.387,2.756-0.719,5.5-0.987,8.154
		c-0.271,2.677-0.487,5.366-0.641,7.987c-0.132,2.228-0.222,4.469-0.266,6.656c-0.026,1.265-0.038,2.563-0.034,3.853
		c0.005,1.31,0.025,2.592,0.059,3.821c0.035,1.246,0.086,2.516,0.153,3.77c0.067,1.263,0.151,2.519,0.249,3.736
		c0.095,1.194,0.211,2.433,0.344,3.674c0.134,1.247,0.283,2.473,0.444,3.651c0.163,1.194,0.344,2.4,0.539,3.582
		c0.203,1.217,0.418,2.409,0.645,3.561c0.229,1.169,0.48,2.347,0.743,3.501c0.27,1.177,0.554,2.338,0.848,3.461
		s0.613,2.268,0.949,3.404c0.391,1.317,0.809,2.638,1.246,3.934c0.479,1.421,0.999,2.864,1.544,4.293
		c0.47,1.23,0.974,2.485,1.497,3.729c0.504,1.199,1.043,2.426,1.599,3.637c0.54,1.181,1.111,2.38,1.691,3.55
		c0.543,1.103,1.141,2.271,1.764,3.449c0.603,1.138,1.22,2.271,1.838,3.371c0.972,1.729,2.004,3.488,3.071,5.231
		c1.263,2.063,2.599,4.153,3.972,6.208c0.881,1.317,1.75,2.587,2.589,3.785c0.671,0.958,1.348,1.906,2.03,2.851
		c0.677,0.935,1.353,1.854,2.036,2.77c0.671,0.899,1.344,1.79,2.024,2.676c0.665,0.867,1.333,1.727,2.005,2.584
		c1.281,1.629,2.606,3.277,3.949,4.913c0.63,0.769,1.269,1.54,1.911,2.308c0.623,0.745,1.245,1.482,1.869,2.219
		c0.613,0.72,1.218,1.425,1.825,2.13c0.609,0.703,1.2,1.384,1.792,2.061c0.583,0.666,1.162,1.322,1.743,1.977
		c0.564,0.635,1.128,1.267,1.694,1.897c0.544,0.606,1.095,1.215,1.647,1.822c0.547,0.602,1.084,1.189,1.624,1.776
		c0.615,0.668,1.228,1.331,1.844,1.992c1.018,1.093,2.05,2.188,3.087,3.276c0.666,0.697,1.328,1.387,1.993,2.072
		c1.286,1.326,2.576,2.638,3.836,3.901c1.087,1.09,2.182,2.175,3.283,3.256c2.277,2.235,4.644,4.511,7.234,6.954
		c1.113,1.05,2.229,2.095,3.349,3.137c1.062,0.983,2.102,1.946,3.145,2.903c0.942,0.867,1.899,1.743,2.857,2.615
		c0.854,0.779,1.718,1.564,2.582,2.349c0.615,0.56,1.25,1.135,1.883,1.708l1.049,0.953l0.634,0.578l0.333,0.303l0.846,0.772
		l0.062,0.057l0.121,0.11l0.696,0.641l0.758,0.699l0.335,0.313l0.376,0.353l0.563,0.528l0.585,0.558l0.652,0.629
		c0.159,0.154,0.314,0.307,0.467,0.458l0.024,0.023l0.023,0.022l0.271,0.267l0.251,0.249l0.221,0.22l0.09,0.09l0.121,0.119
		l0.431,0.428l1.31,1.295l0.219,0.217c1.053,1.035,2.086,2.046,3.123,3.053c1.029,0.999,2.056,1.991,3.085,2.981
		c1.023,0.983,2.043,1.959,3.064,2.934c1.019,0.973,2.033,1.937,3.047,2.901l2.6,2.469l0.551,0.523l0.999,0.95
		c1.003,0.953,1.998,1.901,2.992,2.851c0.498,0.476,0.99,0.946,1.481,1.418c0.749,0.719,1.486,1.428,2.222,2.14
		c1.47,1.421,2.927,2.842,4.377,4.269c0.695,0.686,1.393,1.376,2.089,2.068c0.666,0.663,1.336,1.334,2.004,2.008
		c0.654,0.658,1.299,1.313,1.942,1.968c0.619,0.632,1.235,1.266,1.85,1.902c1.221,1.262,2.387,2.486,3.475,3.65
		c0.559,0.596,1.095,1.173,1.627,1.751c0.522,0.568,1.039,1.135,1.552,1.703c0.508,0.561,1.002,1.114,1.496,1.668
		c0.461,0.521,0.939,1.063,1.415,1.607c0.522,0.598,1.037,1.191,1.547,1.786c0.454,0.529,0.905,1.057,1.355,1.587
		c2.788,3.286,5.514,6.605,8.103,9.865c1.302,1.64,2.595,3.296,3.842,4.922c1.21,1.579,2.454,3.231,3.697,4.912
		c1.785,2.414,3.545,4.863,5.23,7.276c0.517,0.739,1.03,1.482,1.542,2.228l11.546,16.834l11.544-16.835
		c1.01-1.473,2.042-2.951,3.068-4.395c1.728-2.432,3.511-4.872,5.303-7.255c1.816-2.42,3.702-4.864,5.61-7.271
		c1.899-2.401,3.891-4.854,5.923-7.297c0.507-0.608,1.02-1.22,1.533-1.83c0.341-0.404,0.687-0.813,1.031-1.22l0.121-0.143
		l0.246-0.289c0.462-0.542,0.941-1.103,1.423-1.661c0.218-0.252,0.448-0.519,0.681-0.784l0.021-0.023l0.021-0.024
		c0.483-0.557,0.971-1.111,1.46-1.663c0.515-0.582,1.029-1.158,1.547-1.733c0.526-0.584,1.063-1.173,1.604-1.761
		c0.562-0.612,1.124-1.219,1.689-1.824c0.579-0.619,1.172-1.248,1.768-1.874c0.611-0.643,1.235-1.292,1.86-1.939
		c0.644-0.667,1.298-1.336,1.952-2.005c0.666-0.679,1.345-1.365,2.024-2.049c0.709-0.714,1.416-1.419,2.123-2.123
		c1.462-1.45,2.949-2.911,4.443-4.365c0.771-0.751,1.544-1.499,2.319-2.246c0.696-0.673,1.385-1.335,2.074-1.996
		c1.022-0.979,2.064-1.973,3.107-2.965l2.881-2.738l1.411-1.341c1.055-1.001,2.11-2.005,3.165-3.01
		c1.071-1.021,2.14-2.042,3.204-3.065c1.071-1.029,2.145-2.063,3.214-3.099c1.097-1.065,2.181-2.123,3.259-3.186
		c0.524-0.515,1.069-1.053,1.612-1.591l0.179-0.177l0.33-0.327l0.041-0.04l0.04-0.04l0.196-0.197l0.269-0.267l0.163-0.162
		l0.189-0.185l0.163-0.161l0.158-0.155l0.368-0.36c0.435-0.42,0.869-0.836,1.309-1.251c0.476-0.449,0.951-0.893,1.429-1.335
		c0.571-0.529,1.142-1.052,1.713-1.575l2.056-1.87l1.879-1.706l0.854-0.774l0.409-0.372c0.938-0.852,1.868-1.698,2.798-2.548
		c1.047-0.958,2.081-1.906,3.109-2.856c1.121-1.033,2.249-2.08,3.371-3.131c1.199-1.121,2.4-2.255,3.597-3.393
		c1.275-1.213,2.538-2.427,3.795-3.648c1.902-1.847,3.816-3.737,5.679-5.613c1.355-1.368,2.575-2.616,3.742-3.828
		c0.216-0.223,0.432-0.446,0.646-0.671l0.157-0.164c0.543-0.566,1.074-1.126,1.606-1.688c1.098-1.16,2.183-2.321,3.261-3.487
		c1.104-1.196,2.193-2.39,3.274-3.587c0.595-0.661,1.176-1.308,1.755-1.957c0.608-0.683,1.21-1.363,1.81-2.045
		c0.615-0.7,1.235-1.409,1.851-2.12c0.636-0.734,1.271-1.472,1.901-2.212c0.644-0.754,1.292-1.521,1.938-2.292
		c0.678-0.81,1.341-1.608,2.002-2.41c0.69-0.841,1.372-1.678,2.048-2.52c0.688-0.853,1.38-1.724,2.066-2.598
		c1.435-1.823,2.851-3.671,4.201-5.483c1.481-1.99,2.91-3.973,4.25-5.896c1.063-1.528,2.096-3.054,3.072-4.539
		c0.719-1.094,1.418-2.183,2.081-3.239c0.694-1.105,1.381-2.226,2.036-3.325c0.931-1.562,1.823-3.113,2.658-4.622
		c0.646-1.171,1.28-2.357,1.895-3.541c0.646-1.249,1.256-2.472,1.827-3.659c0.607-1.263,1.189-2.524,1.73-3.749
		c0.537-1.211,1.083-2.5,1.612-3.81c0.472-1.171,0.919-2.333,1.334-3.467c0.476-1.294,0.944-2.647,1.386-4.003
		c0.225-0.693,0.436-1.363,0.641-2.034c0.13-0.429,0.25-0.834,0.368-1.238l0.008-0.025l0.007-0.024
		c0.171-0.591,0.338-1.183,0.498-1.774c0.314-1.148,0.626-2.366,0.915-3.586c0.278-1.169,0.551-2.4,0.803-3.64
		c0.244-1.195,0.478-2.439,0.693-3.695c0.213-1.246,0.41-2.509,0.584-3.752c0.17-1.204,0.326-2.449,0.474-3.787
		c0.141-1.27,0.266-2.564,0.37-3.846c0.105-1.309,0.194-2.618,0.263-3.897c0.071-1.344,0.125-2.672,0.158-3.946
		c0.036-1.278,0.056-2.628,0.057-3.984c0.002-1.316-0.013-2.674-0.044-4.023c-0.058-2.461-0.171-4.977-0.336-7.482
		c-0.181-2.745-0.429-5.563-0.736-8.372c-0.157-1.428-0.328-2.857-0.51-4.25c-0.186-1.419-0.387-2.859-0.601-4.292
		c-0.428-2.858-0.926-5.804-1.479-8.761c-0.542-2.894-1.157-5.895-1.828-8.92c-0.66-2.968-1.387-6.014-2.16-9.058
		c-0.766-3.012-1.6-6.111-2.479-9.212c-0.867-3.051-1.806-6.201-2.79-9.365c-0.975-3.129-2.012-6.33-3.084-9.518
		c-1.062-3.146-2.193-6.393-3.367-9.657c-1.18-3.271-2.402-6.565-3.639-9.806c-1.249-3.272-2.559-6.617-3.893-9.938
		c-1.297-3.232-2.647-6.523-4.126-10.054c-1.417-3.379-2.884-6.807-4.361-10.197c-1.447-3.322-2.942-6.695-4.57-10.309
		c-1.517-3.366-3.122-6.875-4.773-10.432c-0.988-2.128-1.981-4.252-2.982-6.373c-1.631-3.459-3.335-7.029-5.063-10.605
		c-1.661-3.442-3.42-7.046-5.227-10.711c-1.703-3.458-3.512-7.097-5.374-10.812c-1.628-3.245-3.262-6.48-4.903-9.712
		c-1.527-3.007-3.06-6.008-4.6-9.006c-2.839-5.531-5.919-11.479-9.414-18.182l-3.154-6.048l-6.707-1.244
		c-2.376-0.44-4.805-0.868-7.218-1.27c-2.41-0.402-4.874-0.791-7.318-1.154c-1.918-0.286-3.885-0.564-5.842-0.829
		c-1.927-0.26-3.909-0.515-5.889-0.756c-3.915-0.476-7.929-0.913-11.93-1.297c-3.981-0.382-8.049-0.721-12.09-1.009
		c-4.056-0.288-8.163-0.53-12.21-0.721c-4.077-0.192-8.213-0.337-12.291-0.432C305.892,56.905,301.743,56.856,297.64,56.856
		L297.64,56.856z"/>
</g>
<g>
	<path fill="#D32F2F" d="M291.866,527.898c-1.314-1.917-2.676-3.857-4.048-5.77c-1.916-2.669-3.921-5.381-5.962-8.059
		c-2.037-2.674-4.165-5.389-6.325-8.069c-2.104-2.609-4.302-5.267-6.533-7.896l-0.773-0.908c-0.533-0.624-1.06-1.238-1.591-1.85
		l-1.399-1.6c-0.572-0.648-1.143-1.289-1.715-1.927c-0.589-0.655-1.188-1.313-1.789-1.969c-0.625-0.681-1.252-1.357-1.881-2.03
		c-0.657-0.702-1.316-1.399-1.98-2.096c-0.688-0.723-1.382-1.443-2.078-2.161c-0.72-0.742-1.446-1.484-2.174-2.224
		c-0.756-0.768-1.517-1.532-2.28-2.297c-0.779-0.78-1.568-1.564-2.36-2.346c-0.817-0.809-1.635-1.611-2.456-2.414
		c-0.838-0.819-1.682-1.638-2.528-2.457c-0.828-0.802-1.661-1.603-2.495-2.403c-1.131-1.085-2.268-2.17-3.406-3.253l-7.97-7.577
		c-1.155-1.102-2.309-2.206-3.46-3.313c-1.163-1.118-2.323-2.241-3.48-3.367c-1.17-1.14-2.334-2.281-3.494-3.429
		c-1.685-1.667-3.357-3.342-5.017-5.03c-1.897-1.932-3.746-3.848-5.495-5.695c-1.85-1.956-3.668-3.92-5.407-5.841
		c-1.823-2.015-3.588-4.017-5.248-5.95c-0.85-0.989-1.696-1.987-2.534-2.991c-0.835-1-1.663-2.006-2.482-3.02
		c-0.811-1.002-1.614-2.01-2.407-3.024c-0.783-1.002-1.555-2.007-2.318-3.017c-0.757-1.005-1.5-2.009-2.235-3.021
		c-0.718-0.989-1.43-1.989-2.132-3c-0.684-0.982-1.36-1.978-2.026-2.98c-0.649-0.978-1.288-1.962-1.914-2.953
		c-0.613-0.971-1.215-1.945-1.803-2.929c-0.571-0.953-1.132-1.916-1.681-2.888c-0.533-0.944-1.054-1.896-1.562-2.854
		c-0.496-0.936-0.979-1.877-1.447-2.824c-0.543-1.098-1.07-2.21-1.576-3.33c-0.408-0.9-0.806-1.817-1.191-2.741
		c-0.376-0.901-0.739-1.811-1.089-2.726c-0.343-0.896-0.673-1.801-0.992-2.71c-0.315-0.903-0.617-1.809-0.907-2.719
		c-0.24-0.754-0.471-1.51-0.695-2.268c-0.271-0.918-0.529-1.837-0.778-2.757c-10.924-40.465-2.232-84.489,23.251-117.765
		c25.482-33.276,65.719-53.142,107.633-53.142c41.913,0,82.149,19.866,107.633,53.142c25.484,33.276,34.176,77.301,23.25,117.765
		c-0.246,0.916-0.505,1.837-0.776,2.755c-0.223,0.757-0.454,1.515-0.694,2.269c-0.291,0.912-0.593,1.818-0.908,2.721
		s-0.646,1.807-0.989,2.707c-0.354,0.921-0.716,1.828-1.092,2.729c-0.384,0.922-0.782,1.839-1.194,2.749
		c-0.499,1.106-1.026,2.22-1.571,3.321c-0.47,0.949-0.951,1.888-1.444,2.819c-0.509,0.96-1.031,1.913-1.564,2.858
		c-0.548,0.969-1.108,1.93-1.678,2.884c-0.593,0.989-1.192,1.962-1.803,2.929c-0.636,1.004-1.273,1.987-1.923,2.963
		c-0.659,0.995-1.336,1.989-2.022,2.977c-0.702,1.009-1.411,2.007-2.131,2.998c-0.734,1.014-1.478,2.017-2.23,3.016
		c-0.767,1.016-1.54,2.021-2.321,3.021c-0.797,1.018-1.599,2.024-2.407,3.024c-0.819,1.014-1.647,2.021-2.482,3.021
		c-0.839,1.003-1.684,2.001-2.535,2.993c-0.857,0.998-1.723,1.991-2.593,2.978c-0.882,0.998-1.764,1.986-2.652,2.968
		c-1.722,1.902-3.54,3.866-5.405,5.84c-1.758,1.856-3.606,3.772-5.498,5.698c-0.917,0.933-1.836,1.859-2.759,2.784
		c-0.752,0.753-1.505,1.502-2.261,2.249c-1.158,1.146-2.322,2.287-3.491,3.426c-1.156,1.126-2.316,2.248-3.479,3.366
		c-1.153,1.109-2.308,2.214-3.463,3.315l-3.433,3.268l-4.539,4.311c-1.134,1.08-2.271,2.166-3.406,3.255
		c-0.833,0.799-1.664,1.6-2.495,2.403c-0.845,0.817-1.688,1.636-2.529,2.457c-1.613,1.578-3.222,3.166-4.819,4.765
		c-1.492,1.493-2.978,2.999-4.449,4.517c-0.692,0.715-1.386,1.434-2.073,2.156c-0.662,0.695-1.322,1.393-1.978,2.094
		c-0.637,0.68-1.262,1.353-1.882,2.029c-0.605,0.66-1.203,1.319-1.798,1.979c-0.568,0.633-1.14,1.273-1.707,1.917
		c-0.471,0.532-0.934,1.063-1.395,1.595c-0.537,0.619-1.064,1.231-1.59,1.847l-0.774,0.911c-2.234,2.633-4.432,5.288-6.538,7.903
		c-2.15,2.668-4.279,5.383-6.328,8.07c-2.049,2.691-4.056,5.404-5.961,8.059c-1.374,1.915-2.736,3.856-4.047,5.769l-5.773,8.421
		L291.866,527.898z"/>
	<path fill="#111111" d="M297.64,207.31c40.014,0,77.746,18.629,102.075,50.398c24.329,31.768,32.48,73.053,22.05,111.685
		c-0.233,0.868-0.478,1.735-0.732,2.6c-0.209,0.71-0.426,1.418-0.65,2.123c-0.271,0.849-0.552,1.693-0.846,2.533
		c-0.295,0.846-0.603,1.687-0.922,2.523c-0.325,0.849-0.662,1.692-1.012,2.53c-0.357,0.857-0.728,1.71-1.11,2.555
		c-0.471,1.045-0.963,2.082-1.471,3.109c-0.439,0.888-0.892,1.77-1.355,2.646c-0.479,0.903-0.971,1.801-1.474,2.691
		c-0.52,0.92-1.052,1.832-1.593,2.738c-0.56,0.935-1.131,1.86-1.712,2.781c-0.601,0.947-1.21,1.888-1.831,2.821
		c-0.637,0.96-1.284,1.912-1.941,2.857c-0.675,0.97-1.358,1.931-2.051,2.886c-0.709,0.978-1.427,1.946-2.153,2.91
		c-0.74,0.98-1.489,1.955-2.247,2.925c-0.771,0.984-1.549,1.962-2.334,2.933c-0.797,0.985-1.602,1.964-2.413,2.936
		c-0.817,0.979-1.642,1.952-2.473,2.92c-0.838,0.976-1.684,1.945-2.533,2.909c-0.858,0.972-1.723,1.939-2.593,2.901
		c-1.745,1.928-3.514,3.836-5.301,5.727c-1.783,1.884-3.586,3.75-5.404,5.601c-0.903,0.919-1.811,1.834-2.721,2.746
		c-0.739,0.74-1.481,1.479-2.226,2.214c-1.147,1.135-2.299,2.265-3.455,3.391c-1.146,1.116-2.297,2.229-3.449,3.338
		c-1.145,1.101-2.292,2.198-3.44,3.294c-1.141,1.088-2.282,2.173-3.425,3.26c-1.514,1.437-3.026,2.872-4.539,4.311
		c-1.144,1.09-2.286,2.181-3.427,3.274c-0.841,0.807-1.68,1.614-2.518,2.425c-0.854,0.826-1.705,1.652-2.554,2.481
		c-1.635,1.599-3.262,3.205-4.878,4.821c-1.519,1.521-3.027,3.051-4.523,4.593c-0.709,0.731-1.416,1.466-2.118,2.203
		c-0.678,0.712-1.353,1.425-2.022,2.142c-0.647,0.69-1.291,1.384-1.93,2.081c-0.616,0.672-1.229,1.347-1.838,2.023
		c-0.588,0.654-1.174,1.312-1.756,1.972c-0.48,0.544-0.958,1.091-1.434,1.64c-0.545,0.627-1.086,1.256-1.625,1.888
		c-0.266,0.31-0.529,0.621-0.793,0.933c-2.249,2.649-4.465,5.326-6.646,8.033c-2.185,2.71-4.334,5.45-6.444,8.219
		c-2.064,2.712-4.093,5.451-6.08,8.22c-1.398,1.949-2.777,3.914-4.134,5.893c-1.356-1.979-2.735-3.943-4.134-5.893
		c-1.987-2.769-4.015-5.508-6.081-8.22c-2.109-2.769-4.259-5.509-6.442-8.219c-2.182-2.707-4.398-5.384-6.646-8.033
		c-0.264-0.312-0.528-0.623-0.793-0.933c-0.54-0.632-1.08-1.261-1.625-1.888c-0.196-0.225-0.391-0.45-0.588-0.675
		c-0.281-0.323-0.563-0.645-0.846-0.965c-0.582-0.66-1.167-1.317-1.755-1.972c-0.609-0.677-1.222-1.352-1.838-2.023
		c-0.639-0.697-1.283-1.391-1.929-2.081c-0.67-0.717-1.345-1.43-2.023-2.142c-0.703-0.737-1.41-1.472-2.118-2.203
		c-0.736-0.759-1.475-1.514-2.215-2.266c-0.767-0.778-1.537-1.553-2.309-2.327c-0.796-0.797-1.596-1.592-2.398-2.384
		c-0.824-0.814-1.65-1.626-2.48-2.438c-0.849-0.829-1.7-1.655-2.553-2.481c-0.838-0.811-1.677-1.618-2.518-2.425
		c-1.141-1.094-2.283-2.185-3.427-3.273c-1.512-1.439-3.026-2.875-4.538-4.312c-1.143-1.087-2.285-2.172-3.425-3.26
		c-1.149-1.096-2.296-2.193-3.44-3.294c-1.154-1.109-2.304-2.222-3.45-3.338c-1.156-1.126-2.308-2.256-3.455-3.391
		c-1.66-1.643-3.31-3.295-4.946-4.96c-1.818-1.851-3.621-3.717-5.404-5.601c-1.788-1.891-3.556-3.799-5.302-5.727
		c-1.732-1.915-3.442-3.851-5.125-5.811c-0.832-0.968-1.656-1.941-2.474-2.92c-0.812-0.972-1.616-1.95-2.413-2.936
		c-0.785-0.971-1.564-1.948-2.333-2.933c-0.757-0.97-1.507-1.944-2.248-2.925c-0.727-0.964-1.444-1.933-2.152-2.91
		c-0.694-0.955-1.377-1.916-2.051-2.886c-0.658-0.945-1.306-1.897-1.943-2.857c-0.62-0.934-1.23-1.874-1.829-2.821
		c-0.582-0.921-1.154-1.847-1.712-2.781c-0.542-0.906-1.074-1.818-1.594-2.738c-0.503-0.891-0.994-1.788-1.473-2.691
		c-0.464-0.876-0.917-1.758-1.355-2.646c-0.508-1.027-1-2.064-1.471-3.109c-0.383-0.845-0.753-1.697-1.11-2.555
		c-0.35-0.838-0.687-1.682-1.011-2.53c-0.32-0.837-0.627-1.678-0.923-2.523c-0.293-0.84-0.575-1.685-0.845-2.533
		c-0.225-0.705-0.441-1.413-0.65-2.123c-0.255-0.864-0.499-1.731-0.733-2.6c-10.43-38.632-2.278-79.917,22.051-111.685
		C219.893,225.939,257.625,207.31,297.64,207.31 M297.64,193.31c-21.771,0-43.597,5.094-63.118,14.732
		c-19.521,9.638-36.836,23.869-50.073,41.154c-13.237,17.284-22.462,37.709-26.68,59.068c-4.217,21.358-3.446,43.758,2.228,64.777
		c0.268,0.99,0.544,1.97,0.821,2.91c0.238,0.808,0.484,1.611,0.739,2.412c0.315,0.989,0.641,1.965,0.969,2.902
		c0.347,0.991,0.704,1.968,1.064,2.909c0.371,0.972,0.764,1.955,1.166,2.917c0.414,0.993,0.845,1.984,1.279,2.943
		c0.523,1.159,1.089,2.356,1.674,3.538c0.479,0.97,0.997,1.98,1.534,2.994c0.536,1.011,1.091,2.025,1.652,3.019
		c0.561,0.993,1.156,2.017,1.772,3.045c0.578,0.967,1.196,1.972,1.887,3.065c0.638,1.01,1.31,2.047,2.001,3.089
		c0.69,1.04,1.403,2.088,2.118,3.115c0.707,1.018,1.455,2.069,2.214,3.114c0.728,1.004,1.504,2.054,2.3,3.109
		c0.794,1.052,1.589,2.085,2.393,3.114c0.822,1.051,1.649,2.089,2.483,3.12c0.844,1.044,1.694,2.078,2.552,3.104
		c0.86,1.03,1.727,2.054,2.601,3.07c1.693,1.973,3.499,4.02,5.361,6.078c1.779,1.965,3.632,3.967,5.513,5.955
		c1.782,1.882,3.661,3.829,5.588,5.791c1.62,1.648,3.331,3.363,5.087,5.102c1.175,1.162,2.353,2.317,3.534,3.469
		c1.169,1.138,2.339,2.27,3.515,3.399c1.156,1.112,2.317,2.224,3.481,3.333c0.946,0.903,1.896,1.807,2.847,2.711l0.593,0.563
		l1.413,1.342c1.04,0.987,2.08,1.976,3.119,2.965c1.132,1.077,2.262,2.156,3.39,3.237c0.822,0.789,1.648,1.585,2.474,2.383
		c0.833,0.807,1.669,1.618,2.503,2.433c0.806,0.788,1.614,1.582,2.42,2.379c0.785,0.775,1.563,1.55,2.338,2.325
		c0.741,0.743,1.493,1.499,2.241,2.258c0.712,0.724,1.426,1.452,2.136,2.185c0.676,0.698,1.357,1.405,2.034,2.115
		c0.647,0.68,1.292,1.361,1.933,2.047c0.615,0.657,1.226,1.315,1.833,1.978c0.589,0.642,1.172,1.284,1.751,1.928
		c0.547,0.609,1.104,1.234,1.657,1.862c0.267,0.302,0.525,0.595,0.782,0.891l0.019,0.022l0.02,0.022l0.342,0.392l0.223,0.257
		c0.505,0.581,1.019,1.18,1.532,1.78c0.263,0.307,0.512,0.601,0.762,0.896c2.196,2.588,4.356,5.198,6.424,7.764
		c2.121,2.632,4.209,5.296,6.207,7.918c2,2.626,3.966,5.283,5.843,7.898c1.343,1.871,2.676,3.771,3.961,5.646l11.547,16.843
		l11.547-16.843c1.282-1.87,2.615-3.771,3.962-5.647c1.865-2.599,3.832-5.258,5.845-7.901c2.005-2.63,4.094-5.294,6.204-7.912
		c2.071-2.571,4.23-5.181,6.419-7.759c0.257-0.304,0.5-0.591,0.745-0.877c0.537-0.629,1.05-1.225,1.566-1.819
		c0.461-0.531,0.909-1.045,1.36-1.556c0.562-0.637,1.118-1.262,1.677-1.884c0.57-0.634,1.154-1.276,1.741-1.917
		c0.608-0.663,1.214-1.316,1.824-1.967c0.657-0.703,1.303-1.385,1.95-2.065c0.673-0.706,1.352-1.411,2.031-2.113
		c1.383-1.425,2.856-2.921,4.376-4.442c1.516-1.516,3.075-3.057,4.761-4.705c0.829-0.81,1.665-1.621,2.503-2.432
		c0.82-0.795,1.646-1.589,2.473-2.382c1.128-1.081,2.26-2.162,3.394-3.242c1.425-1.356,2.862-2.72,4.3-4.084l0.218-0.207
		l0.722-0.687c0.91-0.865,1.819-1.729,2.728-2.597c1.164-1.11,2.324-2.221,3.482-3.333c1.177-1.134,2.346-2.265,3.512-3.398
		c1.183-1.152,2.359-2.308,3.532-3.467c0.763-0.754,1.527-1.515,2.288-2.276c0.938-0.94,1.871-1.881,2.799-2.824
		c1.925-1.96,3.804-3.907,5.587-5.791c1.905-2.016,3.758-4.017,5.513-5.955c0.911-1.007,1.812-2.016,2.706-3.028
		c0.899-1.02,1.784-2.035,2.661-3.056c0.873-1.017,1.738-2.039,2.597-3.066c0.86-1.03,1.712-2.065,2.555-3.108
		c0.831-1.027,1.656-2.063,2.473-3.105c0.813-1.041,1.609-2.077,2.396-3.119c0.806-1.07,1.582-2.119,2.313-3.127
		c0.76-1.047,1.503-2.092,2.209-3.108c0.729-1.047,1.439-2.094,2.117-3.115c0.644-0.967,1.315-2.003,1.988-3.063
		c0.689-1.092,1.305-2.093,1.899-3.086c0.645-1.079,1.221-2.07,1.771-3.045c0.574-1.018,1.131-2.034,1.654-3.022
		c0.528-0.997,1.043-2.001,1.531-2.988c0.602-1.218,1.169-2.416,1.688-3.57c0.421-0.93,0.853-1.921,1.268-2.918
		c0.394-0.941,0.785-1.921,1.163-2.907c0.378-0.991,0.735-1.969,1.068-2.924c0.321-0.919,0.648-1.897,0.965-2.891
		c0.257-0.807,0.504-1.612,0.741-2.421c0.281-0.953,0.559-1.938,0.822-2.919c5.672-21.004,6.442-43.403,2.226-64.763
		c-4.217-21.358-13.442-41.784-26.68-59.069s-30.552-31.515-50.073-41.153C341.236,198.404,319.41,193.31,297.64,193.31
		L297.64,193.31z"/>
</g>
<g>
	<path fill="#A62425" d="M297.64,398.243c-34.387,0-62.363-27.976-62.363-62.363c0-34.387,27.976-62.362,62.363-62.362
		s62.362,27.976,62.362,62.362C360.002,370.268,332.026,398.243,297.64,398.243z"/>
	<g>
		<path fill="#111111" d="M297.64,280.518c30.575,0,55.362,24.787,55.362,55.362c0,30.576-24.787,55.363-55.362,55.363
			c-30.576,0-55.363-24.787-55.363-55.363C242.277,305.305,267.063,280.518,297.64,280.518 M297.64,266.518
			c-38.247,0-69.363,31.116-69.363,69.362c0,38.247,31.116,69.363,69.363,69.363c38.246,0,69.362-31.116,69.362-69.363
			C367.002,297.633,335.886,266.518,297.64,266.518L297.64,266.518z"/>
	</g>
</g>
</svg>
